<svg width="30" height="30" viewBox="0 0 30 30" fill="none" xmlns="http://www.w3.org/2000/svg">
<g opacity="0.4">
<path d="M14.998 13.6245C14.2355 13.6245 13.623 14.237 13.623 14.9995C13.623 15.762 14.2355 16.3745 14.998 16.3745C15.7605 16.3745 16.373 15.762 16.373 14.9995C16.373 14.237 15.7605 13.6245 14.998 13.6245ZM14.998 2.49951C8.09805 2.49951 2.49805 8.09951 2.49805 14.9995C2.49805 21.8995 8.09805 27.4995 14.998 27.4995C21.8981 27.4995 27.4981 21.8995 27.4981 14.9995C27.4981 8.09951 21.8981 2.49951 14.998 2.49951ZM17.7355 17.737L7.49805 22.4995L12.2605 12.262L22.4981 7.49951L17.7355 17.737Z" fill="#5E8DEA"/>
</g>
</svg>
