<svg width="30" height="30" viewBox="0 0 30 30" fill="none" xmlns="http://www.w3.org/2000/svg">
<g opacity="0.4">
<path d="M23.75 3.75049H18.525C18 2.30049 16.625 1.25049 15 1.25049C13.375 1.25049 12 2.30049 11.475 3.75049H6.25C4.875 3.75049 3.75 4.87549 3.75 6.25049V23.7505C3.75 25.1255 4.875 26.2505 6.25 26.2505H23.75C25.125 26.2505 26.25 25.1255 26.25 23.7505V6.25049C26.25 4.87549 25.125 3.75049 23.75 3.75049ZM15 3.75049C15.6875 3.75049 16.25 4.31299 16.25 5.00049C16.25 5.68799 15.6875 6.25049 15 6.25049C14.3125 6.25049 13.75 5.68799 13.75 5.00049C13.75 4.31299 14.3125 3.75049 15 3.75049ZM12.5 21.2505L7.5 16.2505L9.2625 14.488L12.5 17.713L20.7375 9.47549L22.5 11.2505L12.5 21.2505Z" fill="#5E8DEA"/>
</g>
</svg>
