<svg width="30" height="30" viewBox="0 0 30 30" fill="none" xmlns="http://www.w3.org/2000/svg">
<g opacity="0.4">
<path d="M8.75195 22.4995C7.37695 22.4995 6.26445 23.6245 6.26445 24.9995C6.26445 26.3745 7.37695 27.4995 8.75195 27.4995C10.127 27.4995 11.252 26.3745 11.252 24.9995C11.252 23.6245 10.127 22.4995 8.75195 22.4995ZM1.25195 2.49951V4.99951H3.75195L8.25195 14.487L6.56445 17.5495C6.36445 17.8995 6.25195 18.312 6.25195 18.7495C6.25195 20.1245 7.37695 21.2495 8.75195 21.2495H23.752V18.7495H9.27695C9.10195 18.7495 8.96445 18.612 8.96445 18.437L9.00195 18.287L10.127 16.2495H19.4395C20.377 16.2495 21.202 15.737 21.627 14.962L26.102 6.84951C26.202 6.67451 26.252 6.46201 26.252 6.24951C26.252 5.56201 25.6895 4.99951 25.002 4.99951H6.51445L5.33945 2.49951H1.25195ZM21.252 22.4995C19.877 22.4995 18.7645 23.6245 18.7645 24.9995C18.7645 26.3745 19.877 27.4995 21.252 27.4995C22.627 27.4995 23.752 26.3745 23.752 24.9995C23.752 23.6245 22.627 22.4995 21.252 22.4995Z" fill="#5E8DEA"/>
</g>
</svg>
