<svg width="30" height="30" viewBox="0 0 30 30" fill="none" xmlns="http://www.w3.org/2000/svg">
<g opacity="0.4" clip-path="url(#clip0_49_46)">
<path d="M23.9254 16.17C23.9704 15.795 24.0004 15.405 24.0004 15C24.0004 14.595 23.9704 14.205 23.9104 13.83L26.4454 11.85C26.6704 11.67 26.7304 11.34 26.5954 11.085L24.1954 6.93C24.0454 6.66 23.7304 6.57 23.4604 6.66L20.4754 7.86C19.8454 7.38 19.1854 6.99 18.4504 6.69L18.0004 3.51C17.9554 3.21 17.7004 3 17.4004 3H12.6004C12.3004 3 12.0604 3.21 12.0154 3.51L11.5654 6.69C10.8304 6.99 10.1554 7.395 9.54038 7.86L6.55538 6.66C6.28538 6.555 5.97038 6.66 5.82038 6.93L3.42038 11.085C3.27038 11.355 3.33038 11.67 3.57038 11.85L6.10538 13.83C6.04538 14.205 6.00038 14.61 6.00038 15C6.00038 15.39 6.03038 15.795 6.09038 16.17L3.55538 18.15C3.33038 18.33 3.27038 18.66 3.40538 18.915L5.80538 23.07C5.95538 23.34 6.27038 23.43 6.54038 23.34L9.52538 22.14C10.1554 22.62 10.8154 23.01 11.5504 23.31L12.0004 26.49C12.0604 26.79 12.3004 27 12.6004 27H17.4004C17.7004 27 17.9554 26.79 17.9854 26.49L18.4354 23.31C19.1704 23.01 19.8454 22.605 20.4604 22.14L23.4454 23.34C23.7154 23.445 24.0304 23.34 24.1804 23.07L26.5804 18.915C26.7304 18.645 26.6704 18.33 26.4304 18.15L23.9254 16.17ZM15.0004 19.5C12.5254 19.5 10.5004 17.475 10.5004 15C10.5004 12.525 12.5254 10.5 15.0004 10.5C17.4754 10.5 19.5004 12.525 19.5004 15C19.5004 17.475 17.4754 19.5 15.0004 19.5Z" fill="#5E8DEA"/>
</g>
<defs>
<clipPath id="clip0_49_46">
<rect width="30" height="30" fill="white"/>
</clipPath>
</defs>
</svg>
